# xmcd
#
# Track frame offsets:
#	150
#	11195
#	22895
#	35177
#	46942
#	59282
#	69670
#	78992
#	91000
#	99982
#	111535
#	121985
#	132785
#	144675
#	157020
#	169517
#	178530
#	187932
#	197985
#	209062
#	216640
#	226902
#	238700
#	248295
#	259877
#	273805
#	278300
#	288275
#	297330
#
# Disc length: 4097
#
# Revision: 1
# Processed by: cddbd v1.5.1PL0 Copyright (c) Steve Scherf et al.
# Submitted via: ExactAudioCopy v0.90b4
# Normalized: r0:DSETVAR1
#
DISCID=a60fff1d
DTITLE=Various Artist - The Gals of the Big "D" Jamboree
DYEAR=2001
DGENRE=Country
TTITLE0=Helen Hall - Something Special
TTITLE1=Helen Hall - What Else Does She Do Like Me?
TTITLE2=Helen Hall - Footprints
TTITLE3=Helen Hall - Honky Tonk Husband
TTITLE4=Helen Hall - Wasted Life
TTITLE5=Charline Arthur - Hello Baby
TTITLE6=Charline Arthur - Cryin' Alone
TTITLE7=Charline Arthur - Welcome to the Club (live)
TTITLE8=Charline Arthur - What About Tomorrow? (live)
TTITLE9=Charline Arthur - I'm Having a Party All By Myself (live)
TTITLE10=Charline Arthur - I'll Introduce You to a Friend
TTITLE11=The Lovett Sisters - Bacon and Eggs
TTITLE12=The Lovett Sister - I Don't Want to Set the World on Fire
TTITLE13=Abbie Neal and the Ranch Girls - I Can't Help It (live)
TTITLE14=Wanda Jackson - No Wedding Bells for Joe (life)
TTITLE15=Janis Martin - Cracker Jack (live)
TTITLE16=Pat Smith - Elvis, Elvis
TTITLE17=Doreen Freeman - Optimistic
TTITLE18=Sherry Davis - Bop City
TTITLE19=Sherry Davis - Just a Little Bit
TTITLE20=Sherry Davis - Broken Promises (demo)
TTITLE21=Sherry Davis - Broken Promises (with Buddy Holly)
TTITLE22=Sherry Davis - I Didn't Know the Gun Was Loaded (live)
TTITLE23=Betty Lou Lobb - Chime Bells (live)
TTITLE24=Ramona Reed - If I Could Only Learn to Yodel (live)
TTITLE25=Helen Hall - Rock 'Til My Baby Comes Home
TTITLE26=Helen Hall - Little Joe
TTITLE27=Helen Hall - Have It Your Way Baby
TTITLE28=Helen Hall - Hello Baby (demo)
EXTD=
EXTT0=
EXTT1=
EXTT2=
EXTT3=
EXTT4=
EXTT5=
EXTT6=
EXTT7=
EXTT8=
EXTT9=
EXTT10=
EXTT11=
EXTT12=
EXTT13=
EXTT14=
EXTT15=
EXTT16=
EXTT17=
EXTT18=
EXTT19=
EXTT20=
EXTT21=
EXTT22=
EXTT23=
EXTT24=
EXTT25=
EXTT26=
EXTT27=
EXTT28=
PLAYORDER=
